PathFileType	4	(X/Y/Z)	/Users/niels/Desktop/University/Third Semester/Perception and Action/Exam/Gymnastics Motion Tracking/Code for Gym Tracking/Analyzed Data/Webcam_Backflip/id2_1_baseline_Sports2D/id2_1_baseline_Sports2D_px_person00.trc
DataRate	CameraRate	NumFrames	NumMarkers	Units	OrigDataRate	OrigDataStartFrame	OrigNumFrames
29.92207792207792	29.92207792207792	9	22	m	29.92207792207792	48	385
Frame#	Time	Hip			RHip			RKnee			RAnkle			RBigToe			RSmallToe			RHeel			LHip			LKnee			LAnkle			LBigToe			LSmallToe			LHeel			Neck			Head			Nose			RShoulder			RElbow			RWrist			LShoulder			LElbow			LWrist		
		X1	Y1	Z1	X2	Y2	Z2	X3	Y3	Z3	X4	Y4	Z4	X5	Y5	Z5	X6	Y6	Z6	X7	Y7	Z7	X8	Y8	Z8	X9	Y9	Z9	X10	Y10	Z10	X11	Y11	Z11	X12	Y12	Z12	X13	Y13	Z13	X14	Y14	Z14	X15	Y15	Z15	X16	Y16	Z16	X17	Y17	Z17	X18	Y18	Z18	X19	Y19	Z19	X20	Y20	Z20	X21	Y21	Z21	X22	Y22	Z22
48	1.6041666666666665	0.9441248836040956	-0.47873357575312037	0.0	0.8857178358106559	-0.48514598338465	0.0	0.8840141641050296	-0.7030483443823664	0.0	0.8939465858868467	-0.8999687889131626	0.0	0.8685016237432595	-0.9494466247306543	0.0	0.8460826845546563	-0.9386246517716637	0.0	0.9036762704827479	-0.916492071882769	0.0	0.9988168821357166	-0.48685309974580654	0.0	0.9856780775564515	-0.7058555286460589	0.0	0.97044804257667	-0.904659774054699	0.0	1.0134156925451538	-0.9539550422447065	0.0	1.0249886879380137	-0.9426935644428098	0.0	0.951377313654562	-0.9211149675170751	0.0	0.9458110080885459	-0.13210642509030743	0.0	0.9412863784562007	0.011003688946549142	0.0	0.9462794872691953	-0.07036458720365546	0.0	0.8413519016342947	-0.20208080633861913	0.0	0.810051034324651	-0.3644612432756267	0.0	0.7816306817198087	-0.5018245489692983	0.0	1.0532446402088398	-0.18998848173307029	0.0	1.0871895661518352	-0.3414713744555276	0.0	1.1222555063594508	-0.47132998351134536	0.0
49	1.6375868055555556	0.9429045768681754	-0.479593450034521	0.0	0.8847982933897808	-0.4868241866847321	0.0	0.8835539328272951	-0.7042498375428087	0.0	0.8926283384387247	-0.9003989348742011	0.0	0.8689938410898027	-0.9507980302519002	0.0	0.8464587003974358	-0.9402575339353002	0.0	0.9025267062823445	-0.9168494389515705	0.0	0.9975189350307335	-0.4876752724874509	0.0	0.9855792719934561	-0.7070866924818943	0.0	0.9701128239918174	-0.9057528531164646	0.0	1.012657572832661	-0.9545036802890429	0.0	1.0246951443666543	-0.9437235836000661	0.0	0.9512980268991834	-0.9223771855319733	0.0	0.9401061747407182	-0.13320378392311621	0.0	0.9350857883990936	0.00927575763733992	0.0	0.9407462015466345	-0.07123377872116368	0.0	0.8367758323164622	-0.2045287796788629	0.0	0.8073884758784035	-0.36653617430873264	0.0	0.7796779360466575	-0.5026720180611273	0.0	1.0482928754768728	-0.18981557277225516	0.0	1.082411617081623	-0.34071122959051753	0.0	1.116049329397466	-0.47038526060050323	0.0
50	1.6710069444444444	0.9411953843387804	-0.48056679463046537	0.0	0.8834992463749631	-0.48869173902292806	0.0	0.8827629549469179	-0.7057519229144783	0.0	0.8915620060426307	-0.9010439168543791	0.0	0.8693012187094588	-0.9524959123102992	0.0	0.8468874871580019	-0.9422950206929309	0.0	0.9017836485486777	-0.9173652418844779	0.0	0.9958173384700577	-0.4886632053159137	0.0	0.985234665654989	-0.7083426446315456	0.0	0.969705392242565	-0.9069111633712511	0.0	1.0118436364855874	-0.9553933571734358	0.0	1.0245226321697607	-0.9449143814946686	0.0	0.9513547322174873	-0.9237200658736007	0.0	0.93418037946941	-0.13425513191603186	0.0	0.9285389857593775	0.007275635902526746	0.0	0.9348886065394811	-0.07205128833074116	0.0	0.8318994775992323	-0.20684728591058008	0.0	0.8046456668068969	-0.36846175306707313	0.0	0.7779685234117054	-0.5034775597324235	0.0	1.0430636872598091	-0.1893829434568129	0.0	1.0772247907762522	-0.33997970695053786	0.0	1.109173725323351	-0.46945390680605215	0.0
51	1.7044270833333333	0.9389946473766864	-0.4815220807118593	0.0	0.8817454762623085	-0.49055964676451536	0.0	0.8817823233028407	-0.7073093292636558	0.0	0.8909448414000386	-0.901689827469959	0.0	0.8696958622904981	-0.9541355672791476	0.0	0.8475143299161872	-0.9442707825566781	0.0	0.9016308622536837	-0.9178673978299317	0.0	0.9936787633321109	-0.4896052843572057	0.0	0.984603774960102	-0.7093535874675206	0.0	0.9693022126478793	-0.9078536390956053	0.0	1.0108977737408313	-0.9564242934134566	0.0	1.024543814490845	-0.9460351792574997	0.0	0.9515505137466422	-0.9248672314279188	0.0	0.9281425641160923	-0.1352663503367746	0.0	0.9216853661220296	0.005201726385420704	0.0	0.9287132934622215	-0.0727956173280751	0.0	0.8268585062492593	-0.20899739014178995	0.0	0.8017708277617915	-0.37014365543820915	0.0	0.776419599570932	-0.5042422984725871	0.0	1.0376425125411546	-0.1887121018505782	0.0	1.0717565233156623	-0.339172682676508	0.0	1.1016886737336484	-0.46851271365440045	0.0
52	1.737847222222222	0.9364723847963042	-0.4822539393983226	0.0	0.8796060358127054	-0.49213842670341246	0.0	0.8807382710996988	-0.7085423990707597	0.0	0.8907058933867513	-0.9022170217030402	0.0	0.870473563810692	-0.9553959231221743	0.0	0.8484934376857072	-0.9458748069588566	0.0	0.9018954291533505	-0.9182165971194963	0.0	0.991193993743843	-0.49019851331385267	0.0	0.9838170972599142	-0.7098428382522506	0.0	0.968941876922307	-0.9083343826304358	0.0	1.0097242126925212	-0.9572970958916106	0.0	1.0246985815470102	-0.9468160814735576	0.0	0.9518076986636183	-0.9255331904577004	0.0	0.9220698423246272	-0.1362303112955364	0.0	0.9146413970048641	0.003178713073124803	0.0	0.9223274146714532	-0.07346121074765437	0.0	0.8218161617725627	-0.21099292502216582	0.0	0.7987088049906502	-0.3715208890362823	0.0	0.7749487266504045	-0.5048927838291711	0.0	1.0321194497479647	-0.18788198102776776	0.0	1.0662318877144654	-0.33815385740074494	0.0	1.0937775752334817	-0.4673517146339616	0.0
53	1.7712673611111112	0.9338763969516488	-0.4825433106749024	0.0	0.8772590042002045	-0.49313122761273775	0.0	0.879724901106261	-0.7091054990894367	0.0	0.8906285619095119	-0.9025456325944495	0.0	0.8717846810742352	-0.9560962890780347	0.0	0.8498952784026335	-0.9469759163637962	0.0	0.9022043038971949	-0.9183064331129674	0.0	0.9885620084594369	-0.49017317947691524	0.0	0.9831027596770425	-0.709623165480201	0.0	0.9686250996479108	-0.9082332083586978	0.0	1.0082643675374277	-0.9576953833373608	0.0	1.0248108618884055	-0.947064682083019	0.0	0.952030831921623	-0.9255885385018473	0.0	0.9160391412270356	-0.13708643081742403	0.0	0.9075862985917943	0.0012441193532734592	0.0	0.915912155615511	-0.0740878261580467	0.0	0.8169384230914781	-0.21284758755657063	0.0	0.7954636729000438	-0.37258481348546124	0.0	0.7734630417204362	-0.5053643698018422	0.0	1.0265970295243487	-0.1869618918184806	0.0	1.0609265644231967	-0.3368722378906076	0.0	1.085795650036799	-0.46572940214769587	0.0
54	1.8046875	0.9313945757047629	-0.48226854426805954	0.0	0.8749213227195503	-0.493389212791852	0.0	0.878787504335844	-0.7088964653836326	0.0	0.890538980025566	-0.9025876470716468	0.0	0.8735296612996839	-0.9561912083166035	0.0	0.8515986227962595	-0.9475509608144768	0.0	0.9022579450334972	-0.9180503125594726	0.0	0.9860070710746959	-0.4894335071066361	0.0	0.9826401382682349	-0.708684307937242	0.0	0.968351409022185	-0.9075729207860015	0.0	1.0064990112371892	-0.957414254379472	0.0	1.0246603039534212	-0.946719245645735	0.0	0.9521745960466899	-0.9250731903089753	0.0	0.9101780423220742	-0.13775236202563854	0.0	0.9007355042970386	-0.0005643917369103052	0.0	0.9096335839277427	-0.07469859848411221	0.0	0.8123810441537178	-0.2145562959053891	0.0	0.7921477825678213	-0.3733765426337253	0.0	0.7719269174649108	-0.5056880076532876	0.0	1.0212028263868265	-0.18600629952766384	0.0	1.0560871130172949	-0.33541142222334785	0.0	1.0781807922377635	-0.46360597693073485	0.0
55	1.8381076388888888	0.9291351058005379	-0.48150255563758193	0.0	0.8728065613392133	-0.49299386970870307	0.0	0.8779526931315927	-0.7081140422652884	0.0	0.8904034779974348	-0.9023265509020477	0.0	0.8754167864947846	-0.9557565968590542	0.0	0.8533332228195851	-0.9476244581288272	0.0	0.9019775644588648	-0.9174506256378129	0.0	0.9837114125380668	-0.4881021498447588	0.0	0.9824768797628775	-0.7072475099925021	0.0	0.9681407550140494	-0.9065057244600699	0.0	1.0044357472538552	-0.9564669842113891	0.0	1.0240830018938247	-0.9458357828068181	0.0	0.952279711596685	-0.9241279034522726	0.0	0.904670637807657	-0.13818188403189235	0.0	0.8943330988993461	-0.0021462449418667936	0.0	0.9036598211439847	-0.07525336346657444	0.0	0.8082711413152344	-0.21610642560481463	0.0	0.7889440167866932	-0.37398130496840537	0.0	0.77039800918011	-0.505989627417949	0.0	1.0160904115485456	-0.185044057059409	0.0	1.0518846659585792	-0.33391391000277526	0.0	1.071305498091273	-0.4612241869333256	0.0
56	1.8715277777777777	0.9271795638942232	-0.48049279327025113	0.0	0.8710915721971124	-0.4921950967054033	0.0	0.877256850323515	-0.7071029417457361	0.0	0.890265642162417	-0.9018979863183448	0.0	0.8771305298545297	-0.9549718142536645	0.0	0.8548276124538104	-0.9472770722750755	0.0	0.9014471593087507	-0.9166768001473184	0.0	0.9817935434290803	-0.4864446327343593	0.0	0.9825488782288123	-0.7056841831391674	0.0	0.9679963229120414	-0.9052635219023321	0.0	1.0021489979573701	-0.9550591389222116	0.0	1.0230602765513082	-0.944570048175322	0.0	0.9524138894022846	-0.9229727640199659	0.0	0.8997093873679677	-0.1383843624897197	0.0	0.8885870904442252	-0.0034035011324873004	0.0	0.8982145459493363	-0.07570558431143291	0.0	0.8046758628442707	-0.21749450150947064	0.0	0.7860371744754169	-0.3745346977941603	0.0	0.7689752497350718	-0.5064124628466478	0.0	1.011415004583322	-0.18405707058001414	0.0	1.0483966277092631	-0.332502131258708	0.0	1.0653981663481464	-0.45902871936889644	0.0
